# File created by Blade
# Date/Time:  Fri Jan 16 19:18:57 2015
# Frame Rate: 120.000 fps
#------------------------------------------------------
:FULLY-SPECIFIED
:DEGREES
623
root 19.808949 35.785943 -22.068512 -167.266101 0.801455 -179.187736
Spine -26.164964 -1.087503 3.241220
Head 17.774811 -1.765542 6.999882
LeftShoulder -26.490709 -64.985428 74.396686
LeftArm 61.400266 -51.576301 -24.600434
LeftForeArm -63.967772 -0.000000 101.314998
LeftHand 7.660985 0.000000 -0.235059
LeftHandThumb1 -26.253704 0.000000 33.147579
RightShoulder -11.572639 19.826564 -46.005498
RightArm 53.390248 75.648148 20.480498
RightForeArm 43.559125 0.000000 82.251033
RightHand 10.276612 -0.000000 20.397933
RightHandThumb1 -24.326973 -0.000000 -32.862282
LeftUpLeg -3.821579 10.343679 -1.019852
LeftLeg -6.992253 -0.000000 0.000000
LeftFoot -19.261530 25.734971 -16.915233
LeftToeBase 24.328269 -0.000000 -0.000000
RightUpLeg -5.139294 -4.861068 0.390203
RightLeg -3.182981 -0.000000 0.000000
RightFoot -20.196625 -23.777057 18.687801
RightToeBase 22.446265 -0.000000 -0.000000
624
root 19.805645 35.785276 -22.074780 -167.254840 0.800150 -179.173101
Spine -26.200818 -1.141044 3.241267
Head 17.738437 -1.834065 7.245016
LeftShoulder -26.401447 -64.981019 74.442614
LeftArm 61.810601 -51.619546 -24.828872
LeftForeArm -63.749290 -0.000000 101.491310
LeftHand 7.677970 -0.000000 -0.370224
LeftHandThumb1 -26.253704 0.000000 33.147579
RightShoulder -11.700575 19.754696 -45.797935
RightArm 52.624784 75.711854 19.863668
RightForeArm 43.593931 -0.000000 82.485465
RightHand 10.148850 -0.000000 20.109245
RightHandThumb1 -24.326973 -0.000000 -32.862282
LeftUpLeg -3.826313 10.344932 -1.011868
LeftLeg -6.986682 -0.000000 0.000000
LeftFoot -19.278092 25.742345 -16.892844
LeftToeBase 24.326743 -0.000000 -0.000000
RightUpLeg -5.137166 -4.881222 0.407956
RightLeg -3.201669 -0.000000 0.000000
RightFoot -20.245795 -23.811666 18.801786
RightToeBase 22.410392 -0.000000 -0.000000
625
root 19.802536 35.784032 -22.081681 -167.239524 0.800907 -179.150224
Spine -26.234447 -1.205473 3.229310
Head 17.671709 -1.914705 7.583498
LeftShoulder -26.620544 -65.079629 74.920574
LeftArm 61.886540 -51.516619 -24.861321
LeftForeArm -63.976454 -0.000000 101.800313
LeftHand 7.652006 -0.000000 -0.297899
LeftHandThumb1 -26.253704 0.000000 33.147579
RightShoulder -11.752383 19.736242 -45.549918
RightArm 51.514144 75.802799 18.905109
RightForeArm 43.548735 -0.000000 82.732590
RightHand 10.108813 0.000000 19.900699
RightHandThumb1 -24.326973 -0.000000 -32.862282
LeftUpLeg -3.829413 10.336533 -0.991266
LeftLeg -6.979537 -0.000000 0.000000
LeftFoot -19.296182 25.734396 -16.846914
LeftToeBase 24.391809 -0.000000 -0.000000
RightUpLeg -5.139327 -4.889667 0.425470
RightLeg -3.196968 -0.000000 0.000000
RightFoot -20.217048 -23.810355 18.627710
RightToeBase 22.703339 -0.000000 -0.000000
626
root 19.799716 35.782965 -22.088545 -167.225985 0.781749 -179.139355
Spine -26.258476 -1.284726 3.215925
Head 17.596540 -2.027480 7.892190
LeftShoulder -26.406446 -65.014203 74.884640
LeftArm 62.150134 -51.651170 -24.861763
LeftForeArm -64.108188 -0.000000 101.969628
LeftHand 7.768728 0.000000 -0.316806
LeftHandThumb1 -26.253704 0.000000 33.147579
RightShoulder -11.860657 19.871189 -45.413187
RightArm 49.942667 75.693611 17.559657
RightForeArm 43.639308 0.000000 83.038497
RightHand 10.028912 -0.000000 19.602714
RightHandThumb1 -24.326973 -0.000000 -32.862282
LeftUpLeg -3.836538 10.320635 -0.986462
LeftLeg -6.983678 -0.000000 0.000000
LeftFoot -19.324873 25.730940 -16.845514
LeftToeBase 24.240015 -0.000000 -0.000000
RightUpLeg -5.132708 -4.933636 0.439247
RightLeg -3.212845 -0.000000 0.000000
RightFoot -20.186547 -23.769078 18.741285
RightToeBase 22.313545 -0.000000 -0.000000
